HIERARCHY
ROOT Hips
{
	OFFSET 0.000000 0.000000 0.000000 
	CHANNELS 6 Xposition Yposition Zposition Yrotation Zrotation Xrotation 
	JOINT Lumbar
	{
		OFFSET 0.000000 0.000000 0.000000 
		CHANNELS 3 Zrotation Xrotation Yrotation
		JOINT Neck
		{
			OFFSET 0.000000 0.445665 0.000000 
			CHANNELS 3 Zrotation Xrotation Yrotation
			End Site
			{
				OFFSET 0.000000 0.227535 0.000000 
			}
		}
		JOINT RightShoulder
		{
			OFFSET 0.019635 0.377685 0.194865 
			CHANNELS 3 Zrotation Xrotation Yrotation
			JOINT RightElbow
			{
				OFFSET 0.000000 -0.243375 0.000000 
				CHANNELS 2 Zrotation Yrotation
				JOINT RightWrist
				{
					OFFSET 0.000000 -0.264825 0.000000 
					CHANNELS 2 Zrotation Xrotation
					End Site
					{
						OFFSET 0.006600 -0.176220 0.000990 
					}
				}
			}
		}
		JOINT LeftShoulder
		{
			OFFSET 0.019635 0.377685 -0.194865 
			CHANNELS 3 Zrotation Xrotation Yrotation
			JOINT LeftElbow
			{
				OFFSET 0.000000 -0.243375 0.000000 
				CHANNELS 2 Zrotation Yrotation
				JOINT LeftWrist
				{
					OFFSET 0.000000 -0.264825 0.000000 
					CHANNELS 2 Zrotation Xrotation
					End Site
					{
						OFFSET 0.006600 -0.176220 -0.000990 
					}
				}
			}
		}
	}
	JOINT RightHip
	{
		OFFSET 0.052140 -0.069960 0.075570 
		CHANNELS 3 Zrotation Xrotation Yrotation
		JOINT RightKnee
		{
			OFFSET 0.000000 -0.402270 0.000000 
			CHANNELS 1 Zrotation
			JOINT RightAnkle
			{
				OFFSET 0.000000 -0.404085 0.000000 
				CHANNELS 3 Zrotation Xrotation Yrotation
				End Site
				{
					OFFSET 0.204105 -0.089430 0.008415 
				}
			}
		}
	}
	JOINT LeftHip
	{
		OFFSET 0.052140 -0.069960 -0.075570 
		CHANNELS 3 Zrotation Xrotation Yrotation
		JOINT LeftKnee
		{
			OFFSET 0.000000 -0.402270 0.000000 
			CHANNELS 1 Zrotation
			JOINT LeftAnkle
			{
				OFFSET 0.000000 -0.404085 0.000000 
				CHANNELS 3 Zrotation Xrotation Yrotation
				End Site
				{
					OFFSET 0.204105 -0.089430 -0.008415 
				}
			}
		}
	}
}
MOTION
Frames: 16
Frame Time: 0.02
-0.00023 -0.0001 0.00022 22.17057 -22.49234 -6.91087 42.00064 2.92294 -3.52517 -15.80979 -1.42078 -0.51854 71.28608 -100.74056 64.16769 5.87987 102.63392 12.51759 0.78264 53.0876 104.12173 -64.17388 7.71217 -94.20455 10.49627 0.69178 39.04205 -1.7018 -0.93703 -22.51892 -7.05111 -3.90994 -2.71274 42.76686 8.65781 1.24567 -27.91097 -6.81164 3.62788 2.5354
-0.00017 -9e-05 0.00022 22.1394 -22.50505 -6.90286 42.01414 2.92695 -3.52155 -15.82935 -1.42052 -0.51873 71.52494 -100.73287 64.16804 5.85521 102.64773 12.51166 0.81947 53.09058 104.18049 -64.17333 7.69892 -94.21556 10.49739 0.69134 39.05931 -1.75479 -1.18671 -22.52416 -7.03966 -3.87971 -2.69341 42.7705 8.65923 1.26306 -27.90909 -6.81232 3.63018 2.53808
-0.00011 -8e-05 0.00021 22.10831 -22.51771 -6.89486 42.0276 2.93097 -3.51794 -15.84883 -1.42027 -0.51892 71.76345 -100.7252 64.16839 5.83057 102.66151 12.50573 0.85625 53.09342 104.23911 -64.17278 7.68573 -94.22657 10.49847 0.69093 39.0765 -1.80766 -1.43579 -22.52938 -7.02823 -3.84954 -2.67413 42.77412 8.6606 1.28027 -27.90721 -6.81301 3.63248 2.54077
-5e-05 -6e-05 0.00021 22.07724 -22.53038 -6.88687 42.04105 2.93497 -3.51433 -15.86832 -1.42001 -0.51911 72.00163 -100.71753 64.16873 5.80598 102.67527 12.49982 0.89298 53.09637 104.29769 -64.17223 7.67252 -94.23755 10.49959 0.6905 39.0937 -1.86049 -1.68472 -22.53461 -7.01681 -3.8194 -2.65486 42.77775 8.66201 1.29757 -27.90534 -6.81369 3.63477 2.54345
2e-05 -5e-05 0.00021 22.0461 -22.54308 -6.87886 42.05454 2.93896 -3.51073 -15.88788 -1.41975 -0.51931 72.24005 -100.70985 64.16909 5.78137 102.68906 12.49391 0.92973 53.09951 104.35639 -64.17168 7.65925 -94.24851 10.50076 0.69003 39.11096 -1.91344 -1.93421 -22.53985 -7.00536 -3.78919 -2.63554 42.78142 8.66348 1.31515 -27.90346 -6.81436 3.63706 2.54612
8e-05 -3e-05 0.0002 22.0151 -22.55568 -6.87088 42.06793 2.94301 -3.5071 -15.90721 -1.41948 -0.5195 72.47872 -100.70218 64.16943 5.75667 102.70282 12.48793 0.96656 53.10171 104.41483 -64.17113 7.64621 -94.25961 10.50165 0.68976 39.12802 -1.96613 -2.18242 -22.54503 -6.99398 -3.75913 -2.61634 42.78494 8.66466 1.3316 -27.90158 -6.81505 3.63939 2.54882
0.00014 -2e-05 0.0002 21.98386 -22.56846 -6.86284 42.08151 2.94695 -3.50352 -15.92698 -1.41924 -0.51969 72.71659 -100.69452 64.16979 5.73219 102.71661 12.4821 1.00319 53.1058 104.47372 -64.17058 7.63271 -94.27044 10.50312 0.68908 39.14547 -2.01927 -2.43288 -22.55032 -6.98248 -3.72881 -2.59694 42.78874 8.6664 1.35021 -27.89971 -6.81572 3.64163 2.55147
0.0002 -0 0.00019 21.95284 -22.58108 -6.85487 42.09492 2.95099 -3.4999 -15.94634 -1.41897 -0.51988 72.95525 -100.68682 64.17013 5.70751 102.73039 12.47613 1.04001 53.10815 104.5322 -64.17003 7.61965 -94.2815 10.50404 0.68877 39.16255 -2.07202 -2.68133 -22.55552 -6.97108 -3.69872 -2.57771 42.79229 8.66766 1.36698 -27.89783 -6.8164 3.64394 2.55416
0.00026 1e-05 0.00018 21.92206 -22.59348 -6.84697 42.1081 2.95515 -3.49621 -15.96522 -1.41869 -0.52007 73.19485 -100.67917 64.17046 5.68253 102.7441 12.47002 1.07707 53.10833 104.59023 -64.16949 7.6071 -94.29289 10.50431 0.68896 39.17922 -2.12424 -2.9272 -22.5606 -6.95982 -3.66894 -2.5587 42.79553 8.6682 1.38088 -27.89592 -6.81711 3.64638 2.55694
0.00032 2e-05 0.00019 21.88981 -22.60711 -6.83861 42.12253 2.95862 -3.49288 -15.98693 -1.41854 -0.52028 73.42896 -100.67153 64.17088 5.65914 102.75803 12.46478 1.11278 53.12085 104.651 -64.16889 7.59153 -94.30254 10.50839 0.68642 39.19836 -2.17935 -3.18759 -22.56632 -6.94782 -3.63745 -2.53845 42.80054 8.67247 1.40944 -27.89416 -6.81771 3.64821 2.5593
0.00039 4e-05 0.00017 21.86071 -22.61815 -6.83122 42.13439 2.96354 -3.48882 -16.00263 -1.41805 -0.52045 73.67464 -100.66367 64.17112 5.63248 102.77164 12.45768 1.15129 53.10746 104.70587 -64.16843 7.58237 -94.31576 10.50442 0.68954 39.21225 -2.22843 -3.41751 -22.57069 -6.93736 -3.60952 -2.52081 42.80181 8.66914 1.40825 -27.89208 -6.81852 3.65125 2.56249
0.00048 6e-05 0.00011 21.84006 -22.62198 -6.82648 42.13855 2.97266 -3.48233 -16.00189 -1.41732 -0.52054 73.95291 -100.65702 64.17085 5.5959 102.78305 12.44557 1.19814 53.02148 104.74523 -64.16833 7.59085 -94.33982 10.47802 0.70936 39.21191 -2.26026 -3.56122 -22.57148 -6.93125 -3.59177 -2.51057 42.79279 8.64245 1.31455 -27.88907 -6.82019 3.65817 2.56854
0.00057 7e-05 3e-05 21.82261 -22.62321 -6.82271 42.14024 2.98321 -3.47517 -15.99509 -1.41612 -0.5206 74.24274 -100.64984 64.17041 5.55621 102.79438 12.43152 1.24768 52.90993 104.77847 -64.16837 7.60579 -94.36726 10.44356 0.73465 39.20628 -2.28611 -3.67454 -22.57088 -6.92667 -3.57753 -2.50293 42.78001 8.60852 1.19272 -27.88576 -6.82204 3.66621 2.57534
0.00066 9e-05 -5e-05 21.80381 -22.6257 -6.81848 42.14348 2.99295 -3.46862 -15.99106 -1.4147 -0.52068 74.52666 -100.64173 64.17006 5.51853 102.80662 12.41836 1.29558 52.81081 104.81409 -64.16836 7.61776 -94.39247 10.41307 0.75669 39.20296 -2.31525 -3.80386 -22.57084 -6.92131 -3.56135 -2.4939 42.76896 8.57962 1.09121 -27.88263 -6.82361 3.67333 2.58141
0.00075 0.0001 -0.00012 21.78452 -22.6279 -6.81431 42.14496 3.00334 -3.46085 -15.98705 -1.41513 -0.52074 74.81308 -100.63849 64.16966 5.47824 102.81519 12.40537 1.34531 52.70749 104.85158 -64.1683 7.62984 -94.42064 10.38142 0.782 39.20001 -2.34223 -3.92508 -22.5711 -6.91631 -3.54653 -2.48564 42.75784 8.54366 0.95897 -27.87933 -6.82596 3.68209 2.58904
0.00084 0.00012 -0.0002 21.76706 -22.63007 -6.81026 42.14946 3.01273 -3.45539 -15.98145 -1.41159 -0.52083 75.09742 -100.62506 64.16934 5.44276 102.83136 12.39131 1.3918 52.60777 104.88348 -64.16836 7.64329 -94.44346 10.35009 0.80175 39.19503 -2.37197 -4.05445 -22.57041 -6.91095 -3.52985 -2.47651 42.74596 8.52034 0.88264 -27.87632 -6.82678 3.68781 2.59368
